<svg xmlns="http://www.w3.org/2000/svg" width="92" height="84" viewBox="0 0 92 84">
  <g fill="none" fill-rule="evenodd">
    <polygon fill="#116DFF" points="62.505 71.79 25.235 49.701 54.687 .007 78.953 14.389 80 14 79.822 14.904 91.957 22.096"/>
    <polygon fill="#28BF9A" points="29.495 71.79 66.765 49.701 37.313 .007 .043 22.096"/>
    <path fill="#192C55" d="M44.1593,25.9106 L44.6693,26.7706 L19.8223,41.4966 L19.3123,40.6366 L44.1593,25.9106 Z M41.3429,21.4189 L41.8529,22.2789 L17.0059,37.0049 L16.4959,36.1449 L41.3429,21.4189 Z M38.5821,16.7602 L39.0921,17.6202 L14.2451,32.3462 L13.7351,31.4862 L38.5821,16.7602 Z M20.6649,21.0835 L21.1739,21.9445 L11.4839,27.6875 L10.9739,26.8275 L20.6649,21.0835 Z"/>
    <polygon fill="#FFF" points="24 67.602 68 67.602 68 9 24 9"/>
    <path fill="#C2E2FF" d="M45.9996,34.9998 C58.2000396,34.9998 68.5195106,43.3101007 71.520292,54.6719487 L71.6176,55.0518 L81.1636,58.2178 C86.5746,60.0128 90.2266,65.0718 90.2266,70.7728 C90.2266,77.9734429 84.4735631,83.8303178 77.3118531,83.9961875 L76.9996,83.9998 L14.9996,83.9998 C7.6956,83.9998 1.7726,78.0778 1.7726,70.7728 C1.7726,65.1773741 5.29155645,60.2003905 10.5378096,58.3208636 L10.8366,58.2178 L20.3826,55.0518 C23.2506,43.4958 33.6646,34.9998 45.9996,34.9998 Z M41.71,17.97 L49.41,27.4 L53.6,22.55 L61.52,31 L30.48,31 L41.71,17.97 Z M49,15 C50.104,15 51,15.896 51,17 C51,18.0538182 50.1836033,18.9181157 49.1491916,18.9945109 L49,19 C47.896,19 47,18.104 47,17 C47,15.896 47.896,15 49,15 Z"/>
    <path fill="#192C55" d="M46.0001,49.3401 L55.0371,57.4731 L54.3681,58.2161 L46.5001,51.1361 L46.5001,72.0001 L45.5001,72.0001 L45.5001,51.1361 L37.6321,58.2161 L36.9631,57.4731 L46.0001,49.3401 Z M82.5001,14.04 C83.7601,14.72 84.3801,16.12 84.1201,17.46 C84.0701,17.78 83.9601,18.09 83.8001,18.39 L79.0901,27.12 C78.6701,27.89 77.8801,28.33 77.0601,28.33 C76.6901,28.33 76.3101,28.24 75.9701,28.06 C74.8501,27.45 74.4301,26.05 75.0301,24.93 L77.8201,19.77 L78.7001,20.25 L75.9101,25.41 C75.5701,26.04 75.8101,26.84 76.4401,27.18 C76.7501,27.34 77.1001,27.38 77.4301,27.28 C77.7701,27.18 78.0401,26.96 78.2101,26.65 L82.9201,17.91 C83.0901,17.59 83.1801,17.25 83.1901,16.9 C83.2001,16.11 82.7801,15.33 82.0301,14.92 C81.3301,14.54 80.5201,14.58 79.8801,14.94 L78.9401,14.38 C79.2701,14.11 79.6501,13.91 80.0601,13.79 C80.8801,13.54 81.7501,13.63 82.5001,14.04 Z"/>
  </g>
</svg>
